<svg width="220" height="60" viewBox="0 0 220 60" fill="none" xmlns="http://www.w3.org/2000/svg">
<rect width="220" height="60" fill="black"/>
<circle opacity="0.7" cx="19" cy="43" r="6.5" stroke="white"/>
<line x1="24.7764" y1="39.5528" x2="32.7764" y2="35.5528" stroke="white"/>
<circle cx="39" cy="33" r="6.5" stroke="white"/>
<circle cx="59.5" cy="23.5" r="7.5" fill="white"/>
<circle cx="39" cy="33" r="2" fill="white"/>
<line x1="44.7764" y1="30.5528" x2="52.7764" y2="26.5528" stroke="white"/>
<path d="M73.816 40V24.448H75.672V26.496H76.056C76.376 25.92 76.888 25.3867 77.592 24.896C78.296 24.384 79.2987 24.128 80.6 24.128C81.8587 24.128 82.872 24.416 83.64 24.992C84.4293 25.568 84.9947 26.2613 85.336 27.072H85.72C86.0827 26.2613 86.648 25.568 87.416 24.992C88.184 24.416 89.2613 24.128 90.648 24.128C91.7147 24.128 92.6427 24.352 93.432 24.8C94.2213 25.2267 94.84 25.8347 95.288 26.624C95.736 27.392 95.96 28.2987 95.96 29.344V40H94.04V29.536C94.04 28.4267 93.6987 27.5413 93.016 26.88C92.3547 26.1973 91.416 25.856 90.2 25.856C88.9627 25.856 87.928 26.2613 87.096 27.072C86.264 27.8613 85.848 29.024 85.848 30.56V40H83.928V29.536C83.928 28.4267 83.5867 27.5413 82.904 26.88C82.2427 26.1973 81.304 25.856 80.088 25.856C78.8507 25.856 77.816 26.2613 76.984 27.072C76.152 27.8613 75.736 29.024 75.736 30.56V40H73.816ZM109.858 40.448C108.258 40.448 106.86 40.1173 105.666 39.456C104.492 38.7733 103.575 37.824 102.914 36.608C102.252 35.392 101.922 33.9947 101.922 32.416V32.032C101.922 30.432 102.252 29.0347 102.914 27.84C103.575 26.624 104.482 25.6853 105.634 25.024C106.807 24.3413 108.14 24 109.634 24C111.084 24 112.364 24.3093 113.474 24.928C114.604 25.5253 115.49 26.4 116.13 27.552C116.77 28.6827 117.09 30.0373 117.09 31.616V32.64H103.842C103.906 34.5813 104.492 36.0853 105.602 37.152C106.732 38.1973 108.151 38.72 109.858 38.72C111.308 38.72 112.428 38.3893 113.218 37.728C114.028 37.0667 114.647 36.256 115.074 35.296L116.802 36.064C116.482 36.768 116.034 37.4613 115.458 38.144C114.903 38.8053 114.178 39.36 113.282 39.808C112.386 40.2347 111.244 40.448 109.858 40.448ZM103.874 30.976H115.138C115.052 29.2907 114.508 28 113.506 27.104C112.503 26.1867 111.212 25.728 109.634 25.728C108.076 25.728 106.786 26.1867 105.762 27.104C104.738 28 104.108 29.2907 103.874 30.976ZM123.095 40V24.448H124.951V26.496H125.335C125.655 25.92 126.167 25.3867 126.871 24.896C127.575 24.384 128.577 24.128 129.879 24.128C131.137 24.128 132.151 24.416 132.919 24.992C133.708 25.568 134.273 26.2613 134.615 27.072H134.999C135.361 26.2613 135.927 25.568 136.695 24.992C137.463 24.416 138.54 24.128 139.927 24.128C140.993 24.128 141.921 24.352 142.711 24.8C143.5 25.2267 144.119 25.8347 144.567 26.624C145.015 27.392 145.239 28.2987 145.239 29.344V40H143.319V29.536C143.319 28.4267 142.977 27.5413 142.295 26.88C141.633 26.1973 140.695 25.856 139.479 25.856C138.241 25.856 137.207 26.2613 136.375 27.072C135.543 27.8613 135.127 29.024 135.127 30.56V40H133.207V29.536C133.207 28.4267 132.865 27.5413 132.183 26.88C131.521 26.1973 130.583 25.856 129.367 25.856C128.129 25.856 127.095 26.2613 126.263 27.072C125.431 27.8613 125.015 29.024 125.015 30.56V40H123.095ZM159.072 40.448C157.494 40.448 156.107 40.1173 154.912 39.456C153.739 38.7733 152.822 37.8347 152.16 36.64C151.52 35.424 151.2 34.016 151.2 32.416V32.032C151.2 30.432 151.52 29.0347 152.16 27.84C152.822 26.624 153.739 25.6853 154.912 25.024C156.107 24.3413 157.494 24 159.072 24C160.651 24 162.027 24.3413 163.2 25.024C164.395 25.6853 165.312 26.624 165.952 27.84C166.614 29.0347 166.944 30.432 166.944 32.032V32.416C166.944 34.016 166.614 35.424 165.952 36.64C165.312 37.8347 164.395 38.7733 163.2 39.456C162.027 40.1173 160.651 40.448 159.072 40.448ZM159.072 38.72C160.907 38.72 162.358 38.144 163.424 36.992C164.491 35.8187 165.024 34.272 165.024 32.352V32.096C165.024 30.176 164.491 28.64 163.424 27.488C162.358 26.3147 160.907 25.728 159.072 25.728C157.259 25.728 155.808 26.3147 154.72 27.488C153.654 28.64 153.12 30.176 153.12 32.096V32.352C153.12 34.272 153.654 35.8187 154.72 36.992C155.808 38.144 157.259 38.72 159.072 38.72ZM173.092 40V24.448H174.948V26.4H175.332C175.631 25.696 176.068 25.184 176.644 24.864C177.242 24.544 178.063 24.384 179.108 24.384H180.932V26.176H178.884C177.711 26.176 176.772 26.5067 176.068 27.168C175.364 27.8293 175.012 28.864 175.012 30.272V40H173.092ZM190.359 40.448C189.271 40.448 188.279 40.2667 187.383 39.904C186.508 39.52 185.815 38.9653 185.303 38.24C184.791 37.5147 184.535 36.64 184.535 35.616C184.535 34.5707 184.791 33.7067 185.303 33.024C185.815 32.3413 186.508 31.8293 187.383 31.488C188.258 31.1467 189.228 30.976 190.295 30.976H195.991V29.728C195.991 28.4693 195.628 27.488 194.903 26.784C194.178 26.08 193.122 25.728 191.735 25.728C190.37 25.728 189.282 26.0693 188.471 26.752C187.682 27.4133 187.148 28.3093 186.871 29.44L185.015 28.896C185.271 27.9787 185.676 27.1573 186.231 26.432C186.786 25.6853 187.522 25.0987 188.439 24.672C189.356 24.224 190.455 24 191.735 24C193.698 24 195.212 24.512 196.279 25.536C197.367 26.56 197.911 27.9893 197.911 29.824V37.376C197.911 38.016 198.21 38.336 198.807 38.336H200.311V40H198.263C197.602 40 197.079 39.808 196.695 39.424C196.311 39.0187 196.119 38.4747 196.119 37.792V37.568H195.799C195.522 38.0373 195.159 38.496 194.711 38.944C194.284 39.392 193.719 39.7547 193.015 40.032C192.311 40.3093 191.426 40.448 190.359 40.448ZM190.487 38.72C192.13 38.72 193.452 38.2293 194.455 37.248C195.479 36.2453 195.991 34.8373 195.991 33.024V32.64H190.327C189.218 32.64 188.29 32.8853 187.543 33.376C186.818 33.8453 186.455 34.5813 186.455 35.584C186.455 36.5867 186.828 37.3653 187.575 37.92C188.343 38.4533 189.314 38.72 190.487 38.72Z" fill="white"/>
<circle cx="159" cy="32" r="2" fill="white"/>
</svg>
